<?xml version="1.0" encoding="utf-8"?>
<!-- Generator: Adobe Illustrator 16.0.0, SVG Export Plug-In . SVG Version: 6.00 Build 0)  -->
<!DOCTYPE svg PUBLIC "-//W3C//DTD SVG 1.1//EN" "http://www.w3.org/Graphics/SVG/1.1/DTD/svg11.dtd">
<svg version="1.1" id="Layer_1" xmlns="http://www.w3.org/2000/svg" xmlns:xlink="http://www.w3.org/1999/xlink" x="0px" y="0px"
	 width="100px" height="100px" viewBox="0 0 100 100" enable-background="new 0 0 100 100" xml:space="preserve">
<g>
	<g>
		<g>
			<path fill="#8BC53F" d="M61.821,11.481c4.215-0.949,8.65-0.795,12.922-0.247c7.405,1.005,14.744,4.806,18.682,11.337
				c4.22,6.907,4.141,15.607,1.83,23.15c-3.463,11.029-10.819,20.518-19.631,27.856c3.297,1.676,6.636,3.277,9.969,4.886
				c-11.484-1.726-22.816-4.714-33.513-9.261c-3.986-1.817-8.152-4.079-10.395-8.011c-1.442-2.494-1.405-5.551-0.53-8.237
				c2.224-7.771,7.973-13.963,14.307-18.707c8.861-6.563,19.088-10.986,29.428-14.708C79.13,13.224,70.122,10.902,61.821,11.481z
				 M70.3,29.861c-5.668,4.079-11.152,8.615-15.219,14.343c-2.323,3.371-4.302,7.475-3.444,11.665
				c0.918,3.623,3.888,6.199,6.827,8.238c3.813,2.568,7.967,4.547,11.947,6.79c5.273-4.313,9.908-9.433,13.5-15.232
				c3.5-5.625,5.982-11.995,6.476-18.632c0.456-6.088-1.208-12.465-5.218-17.154C80.115,23.059,75.144,26.367,70.3,29.861z"/>
		</g>
		<path fill="#8BC53F" d="M11.358,76.917c0.376-0.302,0.74-0.598,1.122-0.887c4.732,5.97,12.471,8.835,19.927,9.063
			c10.856,0.469,21.479-3.333,30.647-8.922c2.199,0.665,4.399,1.263,6.617,1.873c-7.67,5.146-16.34,8.909-25.472,10.481
			c-7.468,1.243-15.429,0.941-22.392-2.274C17.482,84.28,13.767,81.015,11.358,76.917z"/>
	</g>
	<g>
		<radialGradient id="SVGID_1_" cx="51.0967" cy="25.6567" r="77.5945" gradientUnits="userSpaceOnUse">
			<stop  offset="0" style="stop-color:#00ADEE"/>
			<stop  offset="0.0016" style="stop-color:#01ADEE"/>
			<stop  offset="0.0526" style="stop-color:#15ABE6"/>
			<stop  offset="0.1029" style="stop-color:#22A9E2"/>
			<stop  offset="0.1515" style="stop-color:#26A9E0"/>
			<stop  offset="0.3273" style="stop-color:#1B75BB"/>
			<stop  offset="0.5212" style="stop-color:#2B388F"/>
			<stop  offset="0.7576" style="stop-color:#1C1651"/>
			<stop  offset="1" style="stop-color:#120742"/>
		</radialGradient>
		<path fill="url(#SVGID_1_)" d="M55.105,15.171c1.923-0.936,4.522-0.357,5.607,1.559c2.23,3.919-0.191,9.526-4.425,10.869
			c-1.983,0.653-4.264-0.357-5.126-2.249C49.461,21.672,51.421,16.792,55.105,15.171z"/>
		<radialGradient id="SVGID_2_" cx="51.0977" cy="25.6558" r="77.586" gradientUnits="userSpaceOnUse">
			<stop  offset="0" style="stop-color:#00ADEE"/>
			<stop  offset="0.0016" style="stop-color:#01ADEE"/>
			<stop  offset="0.0526" style="stop-color:#15ABE6"/>
			<stop  offset="0.1029" style="stop-color:#22A9E2"/>
			<stop  offset="0.1515" style="stop-color:#26A9E0"/>
			<stop  offset="0.3273" style="stop-color:#1B75BB"/>
			<stop  offset="0.5212" style="stop-color:#2B388F"/>
			<stop  offset="0.7576" style="stop-color:#1C1651"/>
			<stop  offset="1" style="stop-color:#120742"/>
		</radialGradient>
		<path fill="url(#SVGID_2_)" d="M5.554,25.517c8.158-3.401,17.08-5.447,25.94-4.449c4.695,0.524,9.452,1.762,13.408,4.436
			c2.785,1.83,4.208,5.404,3.426,8.658c-1.09,5.163-4.584,9.328-7.875,13.284C30.04,59.622,17.507,69.708,5.233,79.912
			c5.718-7.001,11.337-14.073,16.846-21.233c5.225-6.845,11.38-13.1,15.281-20.863c0.986-1.873,1.596-4.251,0.388-6.174
			c-1.719-2.698-4.96-3.819-7.893-4.67C21.931,25.018,13.656,24.925,5.554,25.517z"/>
	</g>
</g>
</svg>
